<svg width="523" height="522" viewBox="0 0 523 522" fill="none" xmlns="http://www.w3.org/2000/svg">
<path d="M162.883 221.733H96.4565V204.323H162.883V221.733Z" fill="#ECECEC"/>
<mask id="mask0_1212_89" style="mask-type:luminance" maskUnits="userSpaceOnUse" x="3" y="6" width="520" height="516">
<path d="M3 6.39636H523V521.604H3V6.39636Z" fill="white"/>
</mask>
<g mask="url(#mask0_1212_89)">
<path d="M134.795 240.072C134.788 240.065 134.781 239.959 134.774 239.756C134.769 239.523 134.762 239.23 134.752 238.863C134.741 238.044 134.724 236.901 134.702 235.437C134.676 232.431 134.638 228.109 134.589 222.662L134.795 222.866C119.627 222.895 95.5068 222.943 68.3721 222.996C68.5208 222.847 68.03 223.331 68.706 222.662V222.666V222.675V222.692V222.728V222.798V222.938V223.217V223.776V224.893C68.706 225.636 68.706 226.376 68.706 227.114C68.7049 228.591 68.7049 230.055 68.7039 231.509C68.7028 234.414 68.7008 237.273 68.6987 240.072L68.368 239.745C87.2835 239.804 103.834 239.856 115.706 239.893C121.619 239.933 126.364 239.964 129.678 239.987C131.29 240.006 132.553 240.02 133.456 240.03C133.863 240.038 134.189 240.046 134.444 240.051C134.67 240.058 134.788 240.065 134.795 240.072C134.802 240.08 134.698 240.087 134.487 240.094C134.242 240.099 133.93 240.106 133.54 240.115C132.653 240.125 131.415 240.139 129.833 240.158C126.536 240.18 121.818 240.212 115.937 240.251C104.008 240.289 87.376 240.34 68.368 240.4L68.0372 240.401L68.0362 240.072C68.0341 237.273 68.0331 234.414 68.031 231.509C68.031 230.055 68.03 228.591 68.03 227.114C68.03 226.376 68.03 225.636 68.0289 224.893V223.776V223.217V222.938V222.798V222.728V222.692V222.675V222.666V222.662C68.706 221.991 68.2192 222.475 68.3721 222.326C95.5068 222.379 119.627 222.427 134.795 222.458H135.003L135.001 222.662C134.952 228.161 134.913 232.524 134.887 235.558C134.866 237.003 134.849 238.13 134.836 238.939C134.828 239.29 134.821 239.572 134.816 239.796C134.808 239.986 134.802 240.08 134.795 240.072Z" fill="#E1E1E1"/>
<path d="M416.318 62.6055H349.891V45.1946H416.318V62.6055Z" fill="#ECECEC"/>
<path d="M388.446 80.3836C388.439 80.3764 388.433 80.2702 388.426 80.0672C388.42 79.8344 388.413 79.5407 388.404 79.1739C388.392 78.3547 388.376 77.212 388.354 75.7477C388.328 72.742 388.289 68.4205 388.24 62.9727L388.446 63.1767C373.279 63.2066 349.157 63.254 322.023 63.3075C322.172 63.1581 321.681 63.6424 322.357 62.9727V62.9768V62.9861V63.0036V63.0386V63.1087V63.2488V63.5281V64.0876V65.2045C322.357 65.9475 322.357 66.6873 322.356 67.4251C322.356 68.9017 322.356 70.3659 322.355 71.8198C322.353 74.7256 322.352 77.5839 322.35 80.3836L322.019 80.0549C340.935 80.1146 357.486 80.1672 369.357 80.2043C375.271 80.2445 380.015 80.2764 383.33 80.2981C384.942 80.3166 386.204 80.331 387.108 80.3413C387.514 80.3496 387.84 80.3568 388.096 80.3619C388.32 80.3692 388.439 80.3764 388.446 80.3836C388.454 80.3908 388.35 80.398 388.138 80.4052C387.893 80.4104 387.581 80.4176 387.191 80.4258C386.305 80.4361 385.066 80.4506 383.484 80.4691C380.188 80.4907 375.469 80.5227 369.588 80.5618C357.659 80.6 341.026 80.6515 322.019 80.7112L321.689 80.7123L321.688 80.3836C321.686 77.5839 321.685 74.7256 321.682 71.8198C321.682 70.3659 321.681 68.9017 321.681 67.4251C321.68 66.6873 321.68 65.9475 321.68 65.2045V64.0876V63.5281V63.2488V63.1087V63.0386V63.0036V62.9861V62.9768V62.9727C322.357 62.3019 321.871 62.7872 322.023 62.6367C349.157 62.6903 373.279 62.7377 388.446 62.7686H388.653L388.652 62.9727C388.603 68.472 388.565 72.8348 388.539 75.8683C388.517 77.314 388.5 78.4412 388.488 79.2501C388.48 79.6015 388.472 79.8828 388.467 80.1074C388.46 80.297 388.454 80.3908 388.446 80.3836Z" fill="#E1E1E1"/>
<path d="M461.372 277.887H351.201V125.915H461.372V277.887Z" fill="white"/>
<path d="M461.372 277.887C461.372 277.887 461.363 277.635 461.359 277.154C461.355 276.665 461.35 275.953 461.345 275.016C461.338 273.128 461.328 270.346 461.316 266.728C461.301 259.487 461.281 248.91 461.253 235.524C461.224 208.774 461.185 170.811 461.137 125.915L461.372 126.148C428.118 126.155 390.679 126.163 351.214 126.172H351.202L351.461 125.915C351.443 182.786 351.426 235.403 351.413 277.887L351.202 277.679C384.613 277.724 412.129 277.761 431.304 277.787C440.899 277.811 448.404 277.828 453.522 277.84C456.075 277.851 458.032 277.859 459.359 277.864C460.68 277.871 461.372 277.887 461.372 277.887C461.372 277.887 460.711 277.902 459.403 277.91C458.085 277.915 456.142 277.923 453.606 277.933C448.5 277.946 441.01 277.963 431.436 277.987C412.23 278.013 384.668 278.05 351.202 278.095L350.992 278.096V277.887C350.978 235.403 350.96 182.786 350.943 125.915V125.657H351.202H351.214C390.679 125.666 428.118 125.674 461.372 125.681H461.608L461.607 125.915C461.559 170.874 461.519 208.889 461.491 235.676C461.464 249.039 461.443 259.599 461.428 266.828C461.416 270.426 461.406 273.191 461.399 275.069C461.394 275.994 461.389 276.698 461.386 277.181C461.381 277.653 461.372 277.887 461.372 277.887Z" fill="#E1E1E1"/>
<path d="M448.142 211.735H362.304V206.258H448.142V211.735Z" fill="#F5F5F5"/>
<path d="M430.402 214.083H382.042V204.183H430.402V214.083Z" fill="#F5F5F5"/>
<path d="M398.568 190.767C401.102 190.767 402.324 189.198 402.324 186.329V170.188C402.324 167.32 401.102 165.75 398.522 165.75H394.722V190.767H398.568ZM398.613 162.568C403.546 162.568 405.809 165.527 405.809 170.368V186.194C405.809 190.992 403.546 193.95 398.613 193.95H391.192V162.568H398.613Z" fill="#E1E1E1"/>
<path d="M412.323 186.553C412.323 189.423 413.545 191.081 416.078 191.081C418.658 191.081 419.835 189.423 419.835 186.553V169.964C419.835 167.14 418.658 165.437 416.078 165.437C413.545 165.437 412.323 167.14 412.323 169.964V186.553ZM408.839 170.144C408.839 165.347 411.237 162.254 416.078 162.254C420.965 162.254 423.363 165.347 423.363 170.144V186.374C423.363 191.126 420.965 194.265 416.078 194.265C411.237 194.265 408.839 191.126 408.839 186.374V170.144Z" fill="#E1E1E1"/>
<path d="M400.849 256.578H397.001V222.361H400.849V256.578Z" fill="#E1E1E1"/>
<path d="M409.828 256.578V225.832H403.464V222.361H420.04V225.832H413.676V256.578H409.828Z" fill="#E1E1E1"/>
<path d="M365.171 165.166L369.348 180.121L373.026 175.986L379.151 186.308L375.093 168.55L371.3 172.815L365.171 165.166Z" fill="#F5F5F5"/>
<path d="M447.194 163.657L443.016 178.612L439.338 174.477L433.213 184.799L437.271 167.042L441.064 171.307L447.194 163.657Z" fill="#F5F5F5"/>
<path d="M405.699 133.303L400.259 151.144L406.67 149.282L406.207 163.656L413.584 143.046L406.97 144.967L405.699 133.303Z" fill="#E1E1E1"/>
<path d="M429.839 190.149H428.843V149.887H384.999V190.149H384.004V148.9H429.839V190.149Z" fill="#E1E1E1"/>
<path d="M429.839 262.87H384.004V221.62H384.999V261.884H428.843V221.62H429.839V262.87Z" fill="#E1E1E1"/>
<path d="M378.741 227.784H375.461C373.638 227.784 372.161 226.32 372.161 224.515V193.419C372.161 191.614 373.638 190.149 375.461 190.149H378.741C380.563 190.149 382.041 191.614 382.041 193.419V224.515C382.041 226.32 380.563 227.784 378.741 227.784Z" fill="#E1E1E1"/>
<path d="M436.982 227.784H433.702C431.879 227.784 430.402 226.32 430.402 224.515V193.419C430.402 191.614 431.879 190.149 433.702 190.149H436.982C438.804 190.149 440.282 191.614 440.282 193.419V224.515C440.282 226.32 438.804 227.784 436.982 227.784Z" fill="#E1E1E1"/>
<path d="M372.161 213.73H368.092V203.247H372.161V213.73Z" fill="#ECECEC"/>
<path d="M444.272 213.73H440.204V203.247H444.272V213.73Z" fill="#ECECEC"/>
<path d="M371.555 123.682L347.111 142.276L343.74 137.925L368.184 119.331L371.555 123.682Z" fill="#E1E1E1"/>
<path d="M468.098 266.727L443.654 285.321L440.283 280.971L464.726 262.377L468.098 266.727Z" fill="#E1E1E1"/>
<path d="M120.406 92.3706C120.399 92.3634 120.392 92.2573 120.385 92.0543C120.38 91.8214 120.373 91.5278 120.364 91.1609C120.352 90.3418 120.335 89.199 120.313 87.7348C120.287 84.7291 120.249 80.4075 120.2 74.9597L120.406 75.1637C105.238 75.1936 81.1177 75.241 53.9831 75.2946C54.1318 75.1452 53.6409 75.6295 54.3169 74.9597V74.9638V74.9731V74.9906V75.0257V75.0957V75.2359V75.5161V76.0757V77.1916C54.3169 77.9345 54.3169 78.6754 54.3169 79.4121C54.3159 80.8887 54.3159 82.3529 54.3159 83.8069C54.3138 86.7126 54.3117 89.571 54.3096 92.3706L53.9789 92.043C72.8944 92.1017 89.446 92.1543 101.317 92.1913C107.23 92.2315 111.975 92.2635 115.289 92.2851C116.901 92.3037 118.165 92.3181 119.067 92.3284C119.474 92.3366 119.799 92.3438 120.055 92.349C120.281 92.3562 120.399 92.3634 120.406 92.3706C120.413 92.3779 120.309 92.3851 120.098 92.3923C119.853 92.3974 119.541 92.4046 119.151 92.4129C118.264 92.4232 117.026 92.4376 115.444 92.4562C112.147 92.4778 107.429 92.5097 101.547 92.5489C89.6187 92.587 72.987 92.6385 53.9789 92.6983L53.6482 92.6993L53.6472 92.3706C53.6461 89.571 53.6441 86.7126 53.642 83.8069C53.642 82.3529 53.6409 80.8887 53.6409 79.4121C53.6409 78.6754 53.6409 77.9345 53.6409 77.1916L53.6399 76.0757V75.5161V75.2359V75.0957V75.0257V74.9906V74.9731V74.9638V74.9597C54.318 74.2889 53.8302 74.7742 53.9831 74.6238C81.1177 74.6774 105.238 74.7248 120.406 74.7557H120.614L120.612 74.9597C120.563 80.459 120.524 84.8218 120.498 87.8564C120.477 89.301 120.46 90.4283 120.448 91.2372C120.439 91.5886 120.432 91.8709 120.427 92.0945C120.419 92.2841 120.413 92.3779 120.406 92.3706Z" fill="#E1E1E1"/>
<path d="M129.413 74.9594C129.404 74.9512 129.396 74.8389 129.387 74.6277C129.38 74.3783 129.371 74.0754 129.361 73.7054C129.346 72.8492 129.326 71.6838 129.3 70.2144C129.269 67.1613 129.224 62.85 129.169 57.5485L129.413 57.7896C119.073 57.8133 105.007 57.8474 89.5036 57.8834C89.1989 58.1833 89.9123 57.4754 89.8395 57.5496V57.5547V57.564V57.5815V57.6176V57.6887V57.8319V58.1184V58.6892L89.8385 59.8278C89.8385 60.5841 89.8385 61.3374 89.8375 62.0854C89.8375 63.5816 89.8354 65.0603 89.8354 66.5173C89.8302 69.4292 89.8271 72.2536 89.8229 74.9594L89.5015 74.64C101.023 74.7018 110.942 74.7544 118.052 74.7915C121.557 74.8286 124.369 74.8585 126.368 74.8801C127.302 74.8966 128.046 74.91 128.611 74.9203C129.126 74.9337 129.399 74.9461 129.413 74.9594C129.426 74.9728 129.178 74.9852 128.688 74.9986C128.141 75.0089 127.419 75.0223 126.512 75.0388C124.53 75.0604 121.745 75.0903 118.269 75.1274C111.105 75.1645 101.111 75.2171 89.5015 75.2789L89.1791 75.2799L89.1781 74.9594C89.175 72.2536 89.1708 69.4292 89.1667 66.5173C89.1656 65.0603 89.1646 63.5816 89.1635 62.0854C89.1625 61.3374 89.1625 60.5841 89.1625 59.8278V58.6892V58.1184V57.8319V57.6887V57.6176V57.5815V57.564V57.5547V57.5496C89.0876 57.6207 89.8042 56.9128 89.5036 57.2126C105.007 57.2497 119.073 57.2827 129.413 57.3074H129.658L129.656 57.5485C129.601 62.9118 129.556 67.2726 129.525 70.3607C129.499 71.8074 129.479 72.9543 129.465 73.7982C129.446 74.5761 129.429 74.9759 129.413 74.9594Z" fill="#E1E1E1"/>
<path d="M102.648 387.256C102.64 387.249 102.634 387.143 102.627 386.94C102.622 386.707 102.614 386.413 102.606 386.046C102.594 385.227 102.577 384.084 102.555 382.62C102.529 379.614 102.491 375.293 102.442 369.845L102.648 370.049C87.4803 370.079 63.3596 370.126 36.2249 370.18C36.3736 370.031 35.8828 370.515 36.5588 369.845V369.849V369.858V369.876V369.911V369.981V370.121V370.401V370.961V372.077C36.5588 372.82 36.5588 373.561 36.5588 374.297C36.5577 375.774 36.5577 377.238 36.5567 378.692C36.5556 381.598 36.5536 384.456 36.5515 387.256L36.2208 386.928C55.1363 386.988 71.6879 387.04 83.5584 387.077C89.4719 387.117 94.2164 387.149 97.5308 387.17C99.1428 387.189 100.405 387.203 101.309 387.214C101.716 387.222 102.041 387.229 102.297 387.234C102.523 387.242 102.64 387.249 102.648 387.256C102.655 387.263 102.551 387.27 102.34 387.278C102.094 387.283 101.782 387.29 101.392 387.298C100.506 387.309 99.2676 387.323 97.6858 387.341C94.389 387.363 89.6705 387.395 83.7893 387.435C71.8605 387.472 55.2288 387.524 36.2208 387.584L35.89 387.586L35.889 387.256C35.8879 384.456 35.8859 381.598 35.8838 378.692C35.8838 377.238 35.8828 375.774 35.8828 374.297C35.8828 373.561 35.8828 372.82 35.8828 372.077L35.8817 370.961V370.401V370.121V369.981V369.911V369.876V369.858V369.849V369.845C36.5598 369.174 36.072 369.66 36.2249 369.509C63.3596 369.563 87.4803 369.611 102.648 369.641H102.856L102.854 369.845C102.805 375.345 102.766 379.707 102.74 382.742C102.718 384.186 102.702 385.314 102.69 386.123C102.681 386.474 102.674 386.756 102.668 386.98C102.661 387.169 102.655 387.263 102.648 387.256Z" fill="#E1E1E1"/>
<path d="M111.654 369.845C111.646 369.837 111.638 369.724 111.629 369.513C111.622 369.264 111.613 368.961 111.602 368.591C111.588 367.734 111.568 366.569 111.542 365.1C111.511 362.047 111.466 357.735 111.411 352.434L111.654 352.675C101.315 352.699 87.2487 352.733 71.7454 352.769C71.4407 353.069 72.1541 352.361 72.0813 352.435V352.44V352.449V352.467V352.503V352.574V352.717V353.004V353.575L72.0803 354.713C72.0803 355.47 72.0803 356.223 72.0803 356.971C72.0792 358.467 72.0782 359.946 72.0771 361.403C72.073 364.315 72.0688 367.139 72.0647 369.845L71.7423 369.525C83.2644 369.586 93.1839 369.64 100.293 369.677C103.799 369.714 106.61 369.744 108.61 369.765C109.544 369.782 110.288 369.795 110.852 369.806C111.367 369.819 111.641 369.831 111.654 369.845C111.668 369.858 111.419 369.871 110.929 369.884C110.382 369.894 109.661 369.908 108.754 369.924C106.772 369.946 103.986 369.976 100.511 370.013C93.3472 370.05 83.3518 370.102 71.7423 370.164L71.4209 370.165L71.4199 369.845C71.4167 367.139 71.4126 364.315 71.4084 361.403C71.4074 359.946 71.4063 358.467 71.4053 356.971C71.4043 356.223 71.4043 355.47 71.4043 354.713V353.575V353.004V352.717V352.574V352.503V352.467V352.449V352.44V352.435C71.3294 352.506 72.0459 351.798 71.7454 352.098C87.2487 352.135 101.315 352.168 111.654 352.193H111.9L111.898 352.434C111.843 357.797 111.798 362.158 111.767 365.246C111.741 366.693 111.721 367.84 111.706 368.684C111.688 369.463 111.671 369.861 111.654 369.845Z" fill="#E1E1E1"/>
<path d="M435.794 386.895C435.787 386.888 435.781 386.781 435.773 386.578C435.768 386.346 435.761 386.052 435.753 385.685C435.74 384.866 435.723 383.723 435.702 382.259C435.676 379.253 435.637 374.932 435.588 369.484L435.794 369.688C420.627 369.718 396.505 369.765 369.371 369.819C369.521 369.669 369.029 370.154 369.705 369.484V369.488V369.497V369.515V369.55V369.62V369.76V370.04V370.6V371.716C369.705 372.459 369.705 373.2 369.705 373.936C369.704 375.413 369.704 376.877 369.703 378.331C369.702 381.237 369.7 384.095 369.698 386.895L369.367 386.567C388.283 386.627 404.834 386.678 416.705 386.715C422.618 386.756 427.363 386.788 430.677 386.809C432.289 386.828 433.553 386.842 434.456 386.853C434.862 386.861 435.188 386.868 435.444 386.873C435.668 386.88 435.787 386.888 435.794 386.895C435.801 386.902 435.697 386.909 435.486 386.916C435.241 386.922 434.929 386.929 434.539 386.937C433.653 386.947 432.414 386.962 430.832 386.98C427.535 387.002 422.817 387.034 416.936 387.073C405.007 387.111 388.375 387.163 369.367 387.222L369.037 387.223L369.035 386.895C369.034 384.095 369.032 381.237 369.03 378.331C369.03 376.877 369.029 375.413 369.029 373.936C369.029 373.2 369.029 372.459 369.029 371.716L369.028 370.6V370.04V369.76V369.62V369.55V369.515V369.497V369.488V369.484C369.705 368.813 369.219 369.298 369.371 369.148C396.505 369.201 420.627 369.25 435.794 369.28H436.002L436 369.484C435.951 374.983 435.913 379.346 435.887 382.381C435.865 383.825 435.848 384.952 435.837 385.761C435.827 386.113 435.82 386.394 435.815 386.619C435.808 386.808 435.801 386.902 435.794 386.895Z" fill="#E1E1E1"/>
<path d="M444.801 369.484C444.793 369.475 444.784 369.363 444.775 369.152C444.769 368.902 444.759 368.599 444.749 368.23C444.734 367.372 444.715 366.208 444.688 364.738C444.657 361.685 444.613 357.374 444.557 352.073L444.801 352.314C434.461 352.337 420.395 352.371 404.892 352.408C404.587 352.707 405.301 351.999 405.228 352.074V352.079V352.088V352.106V352.142V352.213V352.356V352.642V353.213L405.227 354.352C405.227 355.108 405.227 355.861 405.227 356.61C405.226 358.106 405.224 359.584 405.224 361.041C405.219 363.953 405.215 366.778 405.211 369.484L404.89 369.164C416.411 369.226 426.33 369.279 433.44 369.316C436.946 369.353 439.757 369.383 441.757 369.404C442.691 369.421 443.434 369.434 443.999 369.444C444.514 369.458 444.787 369.47 444.801 369.484C444.814 369.497 444.566 369.509 444.076 369.523C443.529 369.533 442.807 369.546 441.9 369.563C439.918 369.585 437.133 369.614 433.657 369.652C426.494 369.689 416.499 369.741 404.89 369.803L404.567 369.804L404.566 369.484C404.563 366.778 404.559 363.953 404.555 361.041C404.554 359.584 404.553 358.106 404.552 356.61C404.552 355.861 404.551 355.108 404.551 354.352V353.213V352.642V352.356V352.213V352.142V352.106V352.088V352.079V352.074C404.476 352.145 405.192 351.437 404.892 351.737C420.395 351.774 434.461 351.807 444.801 351.832H445.046L445.044 352.073C444.989 357.436 444.944 361.797 444.913 364.885C444.887 366.332 444.867 367.478 444.853 368.322C444.834 369.101 444.817 369.5 444.801 369.484Z" fill="#E1E1E1"/>
<path d="M438.487 422.072H453.664V476.187H438.487V422.072Z" fill="#ECECEC"/>
<path d="M422.535 426.403V409.575C422.535 408.292 423.584 407.253 424.88 407.253H467.271C468.565 407.253 469.616 408.292 469.616 409.575V426.403C469.616 427.686 468.565 428.726 467.271 428.726H424.88C423.584 428.726 422.535 427.686 422.535 426.403Z" fill="#ECECEC"/>
<path d="M422.535 426.403C422.581 426.388 422.487 426.906 422.963 427.642C423.207 427.993 423.62 428.381 424.231 428.551C424.83 428.714 425.604 428.599 426.442 428.621C429.855 428.601 434.733 428.572 440.745 428.537C446.795 428.52 453.982 428.501 461.959 428.479C462.956 428.477 463.967 428.476 464.99 428.474C465.5 428.473 466.014 428.473 466.531 428.472L467.305 428.469C467.537 428.469 467.766 428.42 467.984 428.343C468.88 428.027 469.457 427.11 469.353 426.102C469.352 425.046 469.351 423.979 469.35 422.904C469.348 418.598 469.346 414.143 469.345 409.578C469.365 408.552 468.509 407.619 467.492 407.532C466.412 407.508 465.24 407.525 464.132 407.519C461.887 407.517 459.676 407.516 457.504 407.515C453.16 407.509 448.968 407.504 444.975 407.5C440.983 407.491 437.189 407.482 433.637 407.474C431.862 407.469 430.147 407.464 428.499 407.46C427.675 407.457 426.867 407.453 426.078 407.45C425.683 407.449 425.292 407.447 424.905 407.446C424.546 407.442 424.201 407.528 423.89 407.681C423.271 407.994 422.837 408.604 422.744 409.255C422.687 409.909 422.722 410.644 422.707 411.304C422.7 412.651 422.693 413.921 422.687 415.11C422.668 417.478 422.653 419.523 422.64 421.207C422.619 422.853 422.601 424.144 422.589 425.059C422.578 425.476 422.569 425.807 422.563 426.062C422.553 426.287 422.544 426.403 422.535 426.403C422.525 426.403 422.516 426.287 422.507 426.062C422.5 425.807 422.491 425.476 422.481 425.059C422.468 424.144 422.451 422.853 422.43 421.207C422.416 419.523 422.402 417.478 422.383 415.11C422.377 413.921 422.369 412.651 422.362 411.304C422.373 410.619 422.325 409.963 422.384 409.201C422.487 408.439 422.987 407.719 423.714 407.345C424.075 407.16 424.491 407.056 424.905 407.058C425.292 407.057 425.683 407.055 426.078 407.054C426.867 407.051 427.675 407.047 428.499 407.045C430.147 407.04 431.862 407.035 433.637 407.03C437.189 407.022 440.983 407.013 444.975 407.005C448.968 407 453.16 406.995 457.504 406.989C459.676 406.988 461.887 406.987 464.132 406.986C465.265 406.992 466.355 406.969 467.549 406.999C468.833 407.108 469.912 408.284 469.886 409.578C469.884 414.143 469.883 418.598 469.881 422.904C469.88 423.979 469.879 425.046 469.878 426.102C470.007 427.213 469.281 428.467 468.162 428.824C467.889 428.921 467.601 428.979 467.312 428.98H466.531C466.014 428.98 465.5 428.979 464.99 428.978C463.967 428.977 462.956 428.975 461.959 428.974C453.982 428.952 446.795 428.932 440.745 428.916C434.733 428.88 429.855 428.851 426.442 428.83C426.021 428.826 425.622 428.822 425.247 428.818C424.88 428.819 424.504 428.812 424.184 428.705C423.535 428.505 423.112 428.077 422.872 427.702C422.632 427.316 422.558 426.973 422.535 426.747C422.512 426.519 422.535 426.403 422.535 426.403Z" fill="#E1E1E1"/>
<path d="M422.535 491.258V474.43C422.535 473.147 423.584 472.106 424.88 472.106H467.271C468.565 472.106 469.616 473.147 469.616 474.43V491.258C469.616 492.54 468.565 493.581 467.271 493.581H424.88C423.584 493.581 422.535 492.54 422.535 491.258Z" fill="#ECECEC"/>
<path d="M422.535 491.258C422.581 491.242 422.487 491.76 422.963 492.497C423.207 492.846 423.62 493.236 424.231 493.406C424.83 493.568 425.604 493.453 426.442 493.476C429.855 493.455 434.733 493.427 440.745 493.39C446.795 493.375 453.982 493.355 461.959 493.334C462.956 493.332 463.967 493.331 464.99 493.329C465.5 493.328 466.014 493.328 466.531 493.327L467.305 493.324C467.537 493.324 467.766 493.275 467.984 493.198C468.88 492.881 469.457 491.964 469.353 490.957C469.352 489.9 469.351 488.834 469.35 487.758C469.348 483.453 469.346 478.998 469.345 474.433C469.365 473.407 468.509 472.474 467.492 472.387C466.412 472.363 465.24 472.379 464.132 472.374C461.887 472.372 459.676 472.371 457.504 472.37C453.16 472.364 448.968 472.359 444.975 472.354C440.983 472.345 437.189 472.337 433.637 472.329C431.862 472.324 430.147 472.319 428.499 472.313C427.675 472.311 426.867 472.308 426.078 472.305C425.683 472.304 425.292 472.302 424.905 472.301C424.546 472.297 424.201 472.382 423.89 472.536C423.271 472.849 422.837 473.459 422.744 474.109C422.687 474.764 422.722 475.497 422.707 476.159C422.7 477.505 422.693 478.775 422.687 479.965C422.668 482.333 422.653 484.376 422.64 486.061C422.619 487.708 422.601 488.999 422.589 489.914C422.578 490.331 422.569 490.662 422.563 490.916C422.553 491.142 422.544 491.258 422.535 491.258C422.525 491.258 422.516 491.142 422.507 490.916C422.5 490.662 422.491 490.331 422.481 489.914C422.468 488.999 422.451 487.708 422.43 486.061C422.416 484.376 422.402 482.333 422.383 479.965C422.377 478.775 422.369 477.505 422.362 476.159C422.373 475.474 422.325 474.817 422.384 474.056C422.487 473.294 422.987 472.574 423.714 472.2C424.075 472.015 424.491 471.91 424.905 471.913C425.292 471.911 425.683 471.909 426.078 471.908C426.867 471.905 427.675 471.902 428.499 471.9C430.147 471.895 431.862 471.89 433.637 471.885C437.189 471.876 440.983 471.868 444.975 471.86C448.968 471.855 453.16 471.85 457.504 471.843C459.676 471.842 461.887 471.841 464.132 471.839C465.265 471.847 466.355 471.824 467.549 471.854C468.833 471.963 469.912 473.139 469.886 474.433C469.884 478.998 469.883 483.453 469.881 487.758C469.88 488.834 469.879 489.9 469.878 490.957C470.007 492.067 469.281 493.321 468.162 493.679C467.889 493.776 467.601 493.834 467.312 493.834L466.531 493.835C466.014 493.835 465.5 493.834 464.99 493.833C463.967 493.832 462.956 493.829 461.959 493.827C453.982 493.806 446.795 493.787 440.745 493.771C434.733 493.735 429.855 493.706 426.442 493.685C426.021 493.681 425.622 493.677 425.247 493.673C424.88 493.674 424.504 493.667 424.184 493.559C423.535 493.36 423.112 492.932 422.872 492.557C422.632 492.17 422.558 491.827 422.535 491.602C422.512 491.374 422.535 491.258 422.535 491.258Z" fill="#E1E1E1"/>
<path d="M456.355 493.273C456.205 493.273 456.085 488.604 456.085 482.843C456.085 477.081 456.205 472.413 456.355 472.413C456.505 472.413 456.626 477.081 456.626 482.843C456.626 488.604 456.505 493.273 456.355 493.273Z" fill="#E1E1E1"/>
<path d="M436.644 493.273C436.494 493.273 436.374 488.604 436.374 482.843C436.374 477.081 436.494 472.413 436.644 472.413C436.794 472.413 436.915 477.081 436.915 482.843C436.915 488.604 436.794 493.273 436.644 493.273Z" fill="#E1E1E1"/>
<path d="M456.355 428.489C456.205 428.489 456.085 423.819 456.085 418.059C456.085 412.297 456.205 407.628 456.355 407.628C456.505 407.628 456.626 412.297 456.626 418.059C456.626 423.819 456.505 428.489 456.355 428.489Z" fill="#E1E1E1"/>
<path d="M436.644 428.489C436.494 428.489 436.374 423.819 436.374 418.059C436.374 412.297 436.494 407.628 436.644 407.628C436.794 407.628 436.915 412.297 436.915 418.059C436.915 423.819 436.794 428.489 436.644 428.489Z" fill="#E1E1E1"/>
</g>
<mask id="mask1_1212_89" style="mask-type:luminance" maskUnits="userSpaceOnUse" x="3" y="6" width="520" height="516">
<path d="M3 6.39636H523V521.604H3V6.39636Z" fill="white"/>
</mask>
<g mask="url(#mask1_1212_89)">
<path d="M80.0506 130.986L81.2414 127.212C91.2847 95.4023 117.757 71.2267 150.557 65.342C154.774 64.5857 159.047 64.1302 163.341 63.9973C194.257 63.0349 225.295 78.7796 242.914 104.363C253.275 119.408 259.774 138.061 274.875 148.32C294.527 161.672 320.776 155.815 343.561 149.485C366.344 143.153 392.628 137.359 412.222 150.796C424.493 159.213 431.358 173.773 434.18 188.376C441.652 227.039 423.324 267.732 393.422 293.05C363.52 318.369 323.712 329.727 284.495 331.414C229.557 333.774 172.63 317.257 131.66 280.248C90.6877 243.24 68.0521 184.695 80.0506 130.986Z" fill="#F5F5F5"/>
</g>
<mask id="mask2_1212_89" style="mask-type:luminance" maskUnits="userSpaceOnUse" x="3" y="6" width="520" height="516">
<path d="M3 6.39636H523V521.604H3V6.39636Z" fill="white"/>
</mask>
<g mask="url(#mask2_1212_89)">
<path d="M490.118 493.581C490.118 493.729 388.426 493.849 263.011 493.849C137.553 493.849 35.8823 493.729 35.8823 493.581C35.8823 493.432 137.553 493.313 263.011 493.313C388.426 493.313 490.118 493.432 490.118 493.581Z" fill="#1A2E35"/>
</g>
<path d="M413.337 477.529H358.718V461.731H413.337V477.529Z" fill="#375A64"/>
<mask id="mask3_1212_89" style="mask-type:luminance" maskUnits="userSpaceOnUse" x="3" y="6" width="520" height="516">
<path d="M3 6.39636H523V521.604H3V6.39636Z" fill="white"/>
</mask>
<g mask="url(#mask3_1212_89)">
<path d="M363.089 493.581H346.105C344.81 493.581 343.761 492.541 343.761 491.257V449.257C343.761 447.975 344.81 446.934 346.105 446.934H363.089C364.384 446.934 365.435 447.975 365.435 449.257V491.257C365.435 492.541 364.384 493.581 363.089 493.581Z" fill="#375A64"/>
<path d="M363.089 493.581C363.074 493.534 363.597 493.628 364.34 493.156C364.693 492.915 365.086 492.505 365.258 491.9C365.421 491.307 365.306 490.54 365.328 489.71C365.309 486.328 365.279 481.495 365.242 475.538C365.227 469.544 365.207 462.423 365.185 454.52C365.183 453.532 365.182 452.53 365.18 451.517C365.179 451.011 365.179 450.502 365.178 449.99L365.175 449.224C365.175 448.994 365.126 448.766 365.048 448.551C364.728 447.662 363.803 447.09 362.786 447.194C361.72 447.195 360.643 447.196 359.557 447.197C355.212 447.199 350.715 447.201 346.108 447.202C345.072 447.182 344.131 448.03 344.043 449.038C344.019 450.108 344.035 451.269 344.029 452.367C344.028 454.591 344.027 456.782 344.026 458.934C344.02 463.238 344.015 467.391 344.009 471.348C344.001 475.302 343.993 479.061 343.985 482.581C343.979 484.339 343.974 486.038 343.969 487.671C343.967 488.487 343.964 489.287 343.961 490.07C343.96 490.462 343.957 490.849 343.956 491.231C343.952 491.588 344.039 491.93 344.194 492.238C344.51 492.851 345.125 493.281 345.782 493.374C346.442 493.43 347.183 493.394 347.85 493.41C349.208 493.417 350.491 493.424 351.692 493.43C354.082 493.448 356.144 493.463 357.845 493.477C359.507 493.497 360.81 493.515 361.733 493.526C362.154 493.538 362.488 493.547 362.745 493.553C362.973 493.562 363.089 493.572 363.089 493.581C363.089 493.59 362.973 493.599 362.745 493.609C362.488 493.615 362.154 493.624 361.733 493.634C360.81 493.647 359.507 493.663 357.845 493.685C356.145 493.697 354.082 493.713 351.692 493.73C350.491 493.737 349.208 493.744 347.85 493.752C347.159 493.741 346.496 493.789 345.728 493.73C344.958 493.628 344.232 493.133 343.855 492.412C343.666 492.055 343.562 491.643 343.564 491.231C343.563 490.849 343.561 490.462 343.56 490.07C343.557 489.287 343.554 488.487 343.552 487.671C343.547 486.038 343.541 484.339 343.536 482.581C343.528 479.061 343.52 475.302 343.511 471.348C343.506 467.391 343.501 463.238 343.495 458.934C343.494 456.782 343.493 454.591 343.491 452.367C343.497 451.244 343.475 450.164 343.505 448.981C343.615 447.709 344.802 446.64 346.108 446.666C350.715 446.667 355.212 446.669 359.557 446.671C360.643 446.672 361.72 446.673 362.786 446.674C363.907 446.546 365.172 447.266 365.533 448.374C365.631 448.644 365.689 448.93 365.689 449.216L365.69 449.99C365.69 450.502 365.689 451.011 365.688 451.517C365.687 452.53 365.685 453.532 365.684 454.52C365.662 462.423 365.643 469.544 365.626 475.538C365.589 481.495 365.56 486.328 365.54 489.71C365.535 490.126 365.531 490.522 365.527 490.893C365.528 491.257 365.52 491.629 365.413 491.947C365.211 492.59 364.779 493.009 364.401 493.247C364.011 493.484 363.664 493.558 363.437 493.58C363.207 493.603 363.089 493.581 363.089 493.581Z" fill="#1A2E35"/>
<path d="M428.547 493.581H411.563C410.268 493.581 409.218 492.541 409.218 491.257V449.257C409.218 447.975 410.268 446.934 411.563 446.934H428.547C429.842 446.934 430.893 447.975 430.893 449.257V491.257C430.893 492.541 429.842 493.581 428.547 493.581Z" fill="#375A64"/>
<path d="M428.547 493.581C428.532 493.534 429.055 493.628 429.798 493.156C430.151 492.915 430.544 492.505 430.716 491.9C430.879 491.307 430.764 490.54 430.786 489.71C430.767 486.328 430.737 481.495 430.7 475.538C430.685 469.544 430.665 462.423 430.643 454.52C430.641 453.532 430.64 452.53 430.638 451.517C430.637 451.011 430.637 450.502 430.636 449.99L430.633 449.224C430.633 448.994 430.584 448.766 430.506 448.551C430.186 447.662 429.261 447.09 428.244 447.194C427.178 447.195 426.101 447.196 425.015 447.197C420.67 447.199 416.173 447.201 411.566 447.202C410.53 447.182 409.589 448.03 409.501 449.038C409.477 450.108 409.493 451.269 409.487 452.367C409.486 454.591 409.485 456.782 409.484 458.934C409.478 463.238 409.473 467.391 409.467 471.348C409.459 475.302 409.451 479.061 409.443 482.581C409.437 484.339 409.432 486.038 409.427 487.671C409.425 488.487 409.422 489.287 409.419 490.07C409.418 490.462 409.415 490.849 409.414 491.231C409.41 491.588 409.497 491.93 409.652 492.238C409.968 492.851 410.583 493.281 411.24 493.374C411.9 493.43 412.641 493.394 413.308 493.41C414.666 493.417 415.949 493.424 417.15 493.43C419.54 493.448 421.603 493.463 423.304 493.477C424.965 493.497 426.268 493.515 427.191 493.526C427.612 493.538 427.946 493.547 428.203 493.553C428.431 493.562 428.547 493.572 428.547 493.581C428.547 493.59 428.431 493.599 428.203 493.609C427.946 493.615 427.612 493.624 427.191 493.634C426.268 493.647 424.965 493.663 423.304 493.685C421.603 493.697 419.54 493.713 417.15 493.73C415.949 493.737 414.666 493.744 413.308 493.752C412.617 493.741 411.954 493.789 411.186 493.73C410.416 493.628 409.69 493.133 409.313 492.412C409.124 492.055 409.02 491.643 409.022 491.231C409.021 490.849 409.019 490.462 409.018 490.07C409.015 489.287 409.012 488.487 409.01 487.671C409.005 486.038 408.999 484.339 408.994 482.581C408.986 479.061 408.978 475.302 408.969 471.348C408.964 467.391 408.959 463.238 408.953 458.934C408.952 456.782 408.951 454.591 408.949 452.367C408.955 451.244 408.933 450.164 408.963 448.981C409.073 447.709 410.26 446.64 411.566 446.666C416.173 446.667 420.67 446.669 425.015 446.671C426.101 446.672 427.178 446.673 428.244 446.674C429.365 446.546 430.63 447.266 430.991 448.374C431.089 448.644 431.147 448.93 431.147 449.216L431.148 449.99C431.148 450.502 431.147 451.011 431.146 451.517C431.145 452.53 431.143 453.532 431.142 454.52C431.12 462.423 431.101 469.544 431.084 475.538C431.047 481.495 431.018 486.328 430.998 489.71C430.993 490.126 430.989 490.522 430.985 490.893C430.986 491.257 430.979 491.629 430.871 491.947C430.669 492.59 430.237 493.009 429.859 493.247C429.469 493.484 429.122 493.558 428.895 493.58C428.665 493.603 428.547 493.581 428.547 493.581Z" fill="#1A2E35"/>
<path d="M430.582 460.072C430.582 460.221 425.869 460.34 420.055 460.34C414.239 460.34 409.527 460.221 409.527 460.072C409.527 459.924 414.239 459.804 420.055 459.804C425.869 459.804 430.582 459.924 430.582 460.072Z" fill="#1A2E35"/>
<path d="M430.582 479.602C430.582 479.75 425.869 479.869 420.055 479.869C414.239 479.869 409.527 479.75 409.527 479.602C409.527 479.453 414.239 479.334 420.055 479.334C425.869 479.334 430.582 479.453 430.582 479.602Z" fill="#1A2E35"/>
<path d="M365.195 460.072C365.195 460.221 360.482 460.34 354.668 460.34C348.852 460.34 344.14 460.221 344.14 460.072C344.14 459.924 348.852 459.804 354.668 459.804C360.482 459.804 365.195 459.924 365.195 460.072Z" fill="#1A2E35"/>
<path d="M365.195 479.602C365.195 479.75 360.482 479.869 354.668 479.869C348.852 479.869 344.14 479.75 344.14 479.602C344.14 479.453 348.852 479.334 354.668 479.334C360.482 479.334 365.195 479.453 365.195 479.602Z" fill="#1A2E35"/>
</g>
<mask id="mask4_1212_89" style="mask-type:luminance" maskUnits="userSpaceOnUse" x="0" y="0" width="520" height="516">
<path d="M0 0H520V515.207H0V0Z" fill="white"/>
</mask>
<g mask="url(#mask4_1212_89)">
<path d="M285.923 210.729C285.923 210.729 312.432 216.72 315.192 235.988C318.188 256.9 312.216 299.004 312.961 306.006C313.704 313.009 313.803 318.738 313.803 318.738L367.637 347.28L356.674 361.683C356.674 361.683 308.869 359.81 296.223 350.597C283.576 341.384 280.973 329.96 281.345 319.641C281.717 309.323 281.311 252.94 281.311 252.94L285.923 210.729Z" fill="#C17560"/>
<path d="M304.243 248.649C304.373 248.742 302.339 251.643 300.154 255.412C297.955 259.174 296.44 262.37 296.294 262.306C296.229 262.277 296.524 261.44 297.11 260.128C297.694 258.817 298.581 257.04 299.685 255.144C300.788 253.249 301.897 251.597 302.749 250.44C303.602 249.281 304.185 248.608 304.243 248.649Z" fill="#7C4236"/>
<path d="M446.075 344.036C446.075 356.055 438.915 365.797 430.083 365.797C426.452 365.797 416.934 365.758 416.934 365.758C413.088 361.784 414.091 351.114 414.091 344.036C414.091 337.488 412.067 326.391 415.43 322.403C415.43 322.403 426.062 322.275 430.083 322.275C438.915 322.275 446.075 332.017 446.075 344.036Z" fill="#FF735D"/>
<mask id="mask5_1212_89" style="mask-type:luminance" maskUnits="userSpaceOnUse" x="413" y="322" width="34" height="44">
<path d="M413.487 322.274H446.075V365.798H413.487V322.274Z" fill="white"/>
</mask>
<g mask="url(#mask5_1212_89)">
<g opacity="0.300003">
<path d="M446.075 344.036C446.075 356.055 438.915 365.797 430.083 365.797C426.453 365.797 416.934 365.758 416.934 365.758C413.089 361.784 414.091 351.114 414.091 344.036C414.091 337.488 412.067 326.391 415.431 322.402C415.431 322.402 426.063 322.275 430.083 322.275C438.915 322.275 446.075 332.017 446.075 344.036Z" fill="black"/>
</g>
</g>
<path d="M429.26 343.997C429.26 356.016 423.742 365.758 416.934 365.758C410.128 365.758 404.609 356.016 404.609 343.997C404.609 331.978 410.128 322.235 416.934 322.235C423.742 322.235 429.26 331.978 429.26 343.997Z" fill="#FF735D"/>
<path d="M424.191 351.524H379.444C377.494 351.524 375.912 349.958 375.912 348.026V343.729C375.912 341.797 377.494 340.231 379.444 340.231H424.191C426.141 340.231 427.722 341.797 427.722 343.729V348.026C427.722 349.958 426.141 351.524 424.191 351.524Z" fill="#FF735D"/>
<path d="M420.025 333.931C418.842 331.868 415.994 328.058 415.994 328.058C411.685 323.893 407.862 327.527 407.862 327.527C405.739 325.793 403.161 326.426 401.398 328.371C396.531 325.881 393.893 331.727 393.893 331.727C384.507 331.195 386.578 340.23 386.578 340.23C386.578 340.23 389.225 340.447 389.247 340.661C389.605 344.134 384.633 350.839 384.633 350.839L373.97 361.683L391.14 361.413C394.135 362.467 396.886 362.213 399.105 359.134C403.831 362.576 406.056 358.307 406.056 358.307C410.504 361.268 413.111 356.793 413.111 356.793C413.111 356.793 417.586 358.917 418.98 350.453C419.487 347.364 421.207 335.994 420.025 333.931Z" fill="#C17560"/>
<path d="M396.086 350.197C396.011 350.163 396.503 349.032 397.192 347.172C397.88 345.313 398.742 342.708 399.401 339.766C399.56 339.036 399.664 338.322 399.597 337.652C399.514 336.979 399.322 336.339 399.02 335.791C398.41 334.689 397.464 333.95 396.648 333.409C394.983 332.344 393.846 331.813 393.892 331.727C393.909 331.694 394.203 331.796 394.721 332.017C395.236 332.241 395.982 332.57 396.855 333.09C397.715 333.605 398.753 334.346 399.455 335.551C399.804 336.152 400.026 336.852 400.124 337.598C400.208 338.356 400.094 339.128 399.931 339.878C399.263 342.862 398.333 345.473 397.549 347.311C396.763 349.15 396.146 350.225 396.086 350.197Z" fill="#7C4236"/>
<path d="M405.322 348.009C405.238 347.979 405.679 346.797 406.12 344.83C406.339 343.785 406.585 342.614 406.851 341.342C407.138 340.035 407.517 338.602 407.549 337.101C407.576 335.614 406.981 334.241 406.223 333.19C405.459 332.122 404.555 331.313 403.807 330.631C402.273 329.298 401.342 328.43 401.398 328.37C401.445 328.323 402.449 329.075 404.056 330.344C404.843 330.997 405.796 331.789 406.627 332.9C407.452 333.998 408.119 335.471 408.091 337.107C408.054 338.711 407.649 340.154 407.337 341.455C407.017 342.752 406.763 343.936 406.492 344.921C406.224 345.907 405.94 346.687 405.723 347.214C405.503 347.741 405.355 348.021 405.322 348.009Z" fill="#7C4236"/>
<path d="M413.136 346.07C413.064 346.048 413.365 344.837 413.908 342.898C414.198 341.88 414.524 340.739 414.876 339.502C415.214 338.238 415.519 336.798 415.21 335.352C414.906 333.905 414.103 332.667 413.232 331.707C412.353 330.741 411.386 330.029 410.558 329.466C408.88 328.359 407.775 327.749 407.821 327.672C407.838 327.64 408.131 327.757 408.644 328.002C409.156 328.25 409.892 328.618 410.767 329.147C411.635 329.681 412.655 330.377 413.6 331.372C414.533 332.36 415.408 333.666 415.74 335.243C416.077 336.833 415.726 338.358 415.358 339.634C414.971 340.92 414.589 342.049 414.274 343.008C413.637 344.92 413.208 346.091 413.136 346.07Z" fill="#7C4236"/>
<path d="M313.958 318.785C314.047 318.94 310.589 320.481 307.287 323.643C303.952 326.772 302.244 330.125 302.091 330.031C302.035 330.003 302.383 329.133 303.173 327.839C303.959 326.547 305.228 324.856 306.912 323.256C308.601 321.659 310.362 320.478 311.701 319.759C313.039 319.034 313.932 318.727 313.958 318.785Z" fill="#7C4236"/>
<path d="M385.814 345.654C385.814 357.673 378.654 367.415 369.822 367.415C366.191 367.415 356.674 367.376 356.674 367.376C352.827 363.402 353.83 352.733 353.83 345.654C353.83 339.106 351.806 328.009 355.169 324.02C355.169 324.02 365.801 323.893 369.822 323.893C378.654 323.893 385.814 333.635 385.814 345.654Z" fill="#FF735D"/>
<mask id="mask6_1212_89" style="mask-type:luminance" maskUnits="userSpaceOnUse" x="353" y="323" width="33" height="45">
<path d="M353.226 323.892H385.814V367.416H353.226V323.892Z" fill="white"/>
</mask>
<g mask="url(#mask6_1212_89)">
<g opacity="0.300003">
<path d="M385.814 345.654C385.814 357.673 378.654 367.415 369.822 367.415C366.191 367.415 356.674 367.376 356.674 367.376C352.827 363.402 353.83 352.733 353.83 345.654C353.83 339.105 351.806 328.009 355.169 324.02C355.169 324.02 365.801 323.892 369.822 323.892C378.654 323.892 385.814 333.635 385.814 345.654Z" fill="black"/>
</g>
</g>
<path d="M368.999 345.615C368.999 357.633 363.481 367.376 356.674 367.376C349.866 367.376 344.348 357.633 344.348 345.615C344.348 333.596 349.866 323.853 356.674 323.853C363.481 323.853 368.999 333.596 368.999 345.615Z" fill="#FF735D"/>
<path d="M367.197 345.615C367.187 345.615 367.176 345.531 367.162 345.367C367.149 345.172 367.134 344.934 367.114 344.644C367.098 344.007 367.012 343.071 366.885 341.871C366.793 341.27 366.692 340.607 366.582 339.885C366.411 339.171 366.298 338.379 366.046 337.559C365.616 335.904 364.968 334.048 363.926 332.167C363.383 331.241 362.778 330.286 361.982 329.429C361.225 328.543 360.255 327.776 359.139 327.236C358.024 326.699 356.707 326.465 355.408 326.71C354.106 326.952 352.887 327.666 351.857 328.611C349.77 330.516 348.369 333.258 347.434 336.183C346.499 339.128 346.074 342.337 346.046 345.612C346.074 348.889 346.498 352.099 347.434 355.044C348.369 357.97 349.77 360.712 351.857 362.618C352.887 363.563 354.107 364.277 355.408 364.52C356.708 364.764 358.025 364.53 359.14 363.993C360.255 363.453 361.226 362.686 361.983 361.799C362.778 360.942 363.384 359.987 363.926 359.061C364.969 357.18 365.616 355.324 366.046 353.669C366.298 352.85 366.411 352.058 366.582 351.344C366.692 350.621 366.793 349.959 366.885 349.358C367.012 348.157 367.098 347.222 367.114 346.585C367.134 346.294 367.149 346.057 367.162 345.862C367.176 345.698 367.187 345.615 367.197 345.615C367.206 345.615 367.213 345.698 367.217 345.862C367.219 346.058 367.221 346.296 367.224 346.588C367.242 347.228 367.191 348.169 367.095 349.381C367.03 349.983 366.933 350.653 366.837 351.387C366.68 352.109 366.58 352.912 366.34 353.744C365.933 355.423 365.304 357.312 364.262 359.244C363.719 360.195 363.109 361.179 362.296 362.074C361.521 362.996 360.517 363.812 359.333 364.394C358.153 364.975 356.727 365.241 355.32 364.983C353.911 364.729 352.606 363.969 351.521 362.985C349.325 360.993 347.891 358.185 346.928 355.202C345.967 352.199 345.532 348.94 345.504 345.612C345.533 342.286 345.968 339.027 346.929 336.025C347.892 333.043 349.326 330.235 351.521 328.244C352.605 327.26 353.909 326.5 355.32 326.246C356.726 325.988 358.152 326.254 359.333 326.835C360.516 327.417 361.52 328.232 362.295 329.155C363.108 330.049 363.719 331.033 364.262 331.984C365.304 333.916 365.932 335.805 366.34 337.485C366.58 338.316 366.68 339.119 366.837 339.841C366.933 340.575 367.029 341.245 367.095 341.848C367.191 343.06 367.242 344.001 367.224 344.641C367.221 344.933 367.219 345.171 367.217 345.367C367.213 345.531 367.206 345.615 367.197 345.615Z" fill="#1A2E35"/>
<path d="M356.311 347.847L355.569 347.9L355.665 349.22L354.638 349.293L354.541 347.973L352.089 348.147L352.018 347.167L353.875 343.024L354.982 342.946L353.265 346.872L354.487 346.784L354.403 345.606L355.398 345.536L355.483 346.713L356.225 346.661L356.311 347.847Z" fill="#1A2E35"/>
<path d="M358.301 347.127L357.861 347.828L357.95 349.058L356.936 349.129L356.454 342.462L357.468 342.39L357.741 346.164L359.084 344.118L360.293 344.032L358.985 346.185L360.774 348.857L359.545 348.945L358.301 347.127Z" fill="#1A2E35"/>
<path d="M245.963 80.3157C251.016 76.394 251.34 68.3918 247.894 63.0254C244.449 57.659 238.205 54.6316 231.943 53.2375C222.251 51.0808 211.143 52.6378 204.131 59.6096C197.12 66.5813 196.253 79.5831 203.934 85.8233C199.503 86.1664 194.824 86.5951 191.216 89.168C187.609 91.741 185.753 97.2568 188.585 100.65C191.812 104.516 198.011 103.066 202.742 101.28C199.632 103.229 199.146 107.936 201.183 110.974C203.222 114.01 207.103 115.442 210.784 115.398C214.464 115.356 218.003 114.049 221.378 112.596" fill="#1A2E35"/>
<path d="M230.493 81.8119C232.321 79.6429 234.193 77.443 236.6 75.9272C239.007 74.4125 242.075 73.6624 244.752 74.6351C246.012 75.0926 247.214 76.0427 247.444 77.3523C247.675 78.662 246.465 80.1633 245.163 79.8397L244.842 80.0324C241.474 82.1273 238.064 84.1551 234.615 86.116C233.747 86.6096 232.848 87.1093 231.855 87.2412C230.863 87.3731 229.743 87.0537 229.208 86.2139C228.327 84.8259 229.433 83.0711 230.493 81.8119Z" fill="#FF735D"/>
<path d="M223.356 90.4499C235.111 80.2066 249.383 75.5378 264.87 77.8119C273.606 79.0958 276.913 81.4802 282.908 84.184C288.903 86.8878 294.009 91.1506 296.874 97.0271C300.278 104.007 302.844 111.62 302.418 119.36C301.978 127.311 301.533 135.314 299.632 143.052C297.731 150.788 294.268 158.326 288.551 163.924L267.855 164.094C256.681 162.65 237.573 173.582 227.167 169.298C216.761 165.016 210.003 145.803 208.594 134.266C206.715 118.868 211.601 100.693 223.356 90.4499Z" fill="#1A2E35"/>
<path d="M262.033 199.49C263.065 192.473 264.289 183.665 264.285 183.698C264.285 183.698 280.988 184.593 288.994 164.503C292.975 154.512 296.258 137.415 298.486 123.342C300.492 110.673 292.491 91.6657 276.735 89.0299L269.862 87.0762L241.28 93.2494C237.374 92.8094 233.776 95.404 233.001 99.2238L216.712 193.475L229.157 221.918L259.968 210.093L262.033 199.49Z" fill="#C17560"/>
<path d="M258.269 154.465C258.598 153.391 259.375 152.521 260.273 151.983C262.067 150.906 264.384 151.152 265.873 152.577C267.364 154.002 267.934 156.517 267.251 158.657C266.094 159.788 264.505 160.42 262.883 160.295C262.631 160.275 262.38 160.243 262.13 160.196C260.924 159.967 259.758 159.359 258.98 158.323C258.202 157.286 257.863 155.79 258.269 154.465Z" fill="#7C4236"/>
<path d="M289.323 138.963C289.056 140.385 287.622 141.334 286.119 141.086C284.619 140.839 283.614 139.489 283.88 138.067C284.146 136.646 285.581 135.695 287.08 135.942C288.584 136.189 289.589 137.542 289.323 138.963Z" fill="#1A2E35"/>
<path d="M292.509 129.581C292.097 129.856 290.39 127.91 287.488 127.278C284.598 126.607 282.137 127.617 281.902 127.196C281.781 127.006 282.264 126.453 283.339 125.988C284.401 125.523 286.103 125.218 287.908 125.622C289.712 126.03 291.085 127.025 291.808 127.89C292.547 128.765 292.709 129.462 292.509 129.581Z" fill="#1A2E35"/>
<path d="M269.905 149.248C269.928 149.082 271.8 149.17 274.804 149.443C275.562 149.529 276.297 149.537 276.534 149.065C276.827 148.573 276.695 147.714 276.526 146.781C276.228 144.852 275.917 142.829 275.588 140.711C274.331 132.085 273.595 125.058 273.945 125.012C274.297 124.964 275.602 131.917 276.86 140.543C277.152 142.666 277.433 144.69 277.698 146.626C277.792 147.522 278.061 148.574 277.436 149.591C277.114 150.096 276.482 150.373 275.978 150.396C275.471 150.435 275.053 150.351 274.681 150.293C271.706 149.802 269.879 149.414 269.905 149.248Z" fill="#1A2E35"/>
<path d="M264.284 183.697C264.284 183.697 249.942 181.489 237.803 170.064C237.803 170.064 242.066 186.149 263.54 188.829L264.284 183.697Z" fill="#7C4236"/>
<path d="M260.923 149.358C261.4 149.434 260.707 152.555 262.906 155.362C265.097 158.176 268.532 158.563 268.46 159.005C268.46 159.21 267.577 159.446 266.152 159.173C264.751 158.915 262.821 158.026 261.476 156.309C260.135 154.589 259.835 152.622 260.015 151.319C260.187 149.988 260.712 149.292 260.923 149.358Z" fill="#1A2E35"/>
<path d="M293.205 123.735C292.561 124.329 290.444 123.371 287.801 123.014C285.17 122.573 282.856 122.86 282.428 122.103C282.243 121.738 282.679 121.117 283.737 120.609C284.781 120.102 286.459 119.787 288.273 120.06C290.084 120.337 291.586 121.131 292.421 121.923C293.272 122.721 293.493 123.441 293.205 123.735Z" fill="#1A2E35"/>
<path d="M256.406 132.634C256.093 134.047 257.04 135.473 258.523 135.824C260.002 136.176 261.458 135.318 261.771 133.907C262.084 132.495 261.136 131.066 259.658 130.716C258.175 130.364 256.719 131.223 256.406 132.634Z" fill="#1A2E35"/>
<path d="M253.081 121.975C253.353 122.387 255.689 121.253 258.611 121.789C261.537 122.285 263.406 124.165 263.789 123.867C263.974 123.739 263.747 123.042 262.939 122.2C262.144 121.362 260.696 120.425 258.874 120.102C257.051 119.782 255.397 120.169 254.392 120.688C253.366 121.208 252.944 121.787 253.081 121.975Z" fill="#1A2E35"/>
<path d="M256.391 112.971C256.845 113.732 259.227 113.46 261.943 113.92C264.674 114.295 266.87 115.269 267.525 114.678C267.818 114.385 267.578 113.661 266.69 112.856C265.816 112.057 264.256 111.25 262.384 110.961C260.511 110.676 258.787 110.978 257.72 111.482C256.636 111.983 256.196 112.604 256.391 112.971Z" fill="#1A2E35"/>
<path d="M230.755 135.135C231.099 133.583 230.109 129.528 228.617 128.949C224.633 127.404 217.119 126.095 214.72 136.466C211.443 150.644 226.486 150.979 226.605 150.579C226.698 150.265 229.567 140.493 230.755 135.135Z" fill="#C17560"/>
<path d="M223.855 144.504C223.803 144.444 223.565 144.62 223.101 144.716C222.646 144.809 221.909 144.778 221.228 144.33C219.842 143.438 219.119 140.771 219.642 138.201C219.903 136.901 220.459 135.735 221.156 134.822C221.833 133.883 222.677 133.312 223.47 133.352C224.266 133.35 224.701 133.924 224.784 134.362C224.885 134.802 224.728 135.065 224.799 135.106C224.83 135.151 225.16 134.938 225.181 134.327C225.187 134.031 225.096 133.66 224.822 133.31C224.543 132.956 224.071 132.7 223.527 132.636C222.406 132.462 221.181 133.242 220.415 134.244C219.589 135.237 218.932 136.542 218.638 138C218.069 140.878 218.927 143.885 220.859 144.948C221.805 145.436 222.715 145.326 223.225 145.09C223.75 144.841 223.898 144.541 223.855 144.504Z" fill="#7C4236"/>
<path d="M228.02 128.894L231.065 133.27C249.434 120.824 286.712 88.2346 284.608 90.1955C284.608 90.1955 274.479 83.9883 262.354 84.0491C250.228 84.1089 226.882 86.2964 224.927 100.134C222.972 113.972 228.02 128.894 228.02 128.894Z" fill="#1A2E35"/>
<path d="M207.542 122.293C207.519 122.281 207.643 122.009 207.902 121.5C208.164 120.993 208.603 120.269 209.264 119.404C210.584 117.683 212.932 115.445 216.429 113.657C219.889 111.799 224.463 110.57 229.56 109.851C234.655 109.081 240.308 108.762 246.038 107.362C251.791 106.052 257.063 104.013 261.644 101.773C266.215 99.5021 270.094 97.0044 273.18 94.6921C276.268 92.3768 278.582 90.2716 280.152 88.792C280.878 88.083 281.468 87.5081 281.932 87.0547C282.343 86.66 282.567 86.4601 282.586 86.4777C282.606 86.4952 282.419 86.7281 282.042 87.1567C281.662 87.5792 281.117 88.2211 280.359 88.996C278.846 90.5457 276.573 92.722 273.504 95.1084C270.436 97.4918 266.553 100.059 261.954 102.386C257.347 104.681 252.025 106.762 246.21 108.085C240.406 109.502 234.716 109.801 229.658 110.529C224.589 111.208 220.098 112.363 216.67 114.125C213.21 115.82 210.86 117.947 209.492 119.584C208.126 121.241 207.612 122.333 207.542 122.293Z" fill="#375A64"/>
<path d="M211.373 125.237C211.373 125.237 211.423 124.039 212.456 122.198C213.455 120.366 215.605 118.007 219.013 116.343C222.404 114.604 226.943 113.929 231.857 113.633C236.787 113.371 242.169 112.886 247.634 111.373C253.088 109.877 258.105 107.805 262.362 105.387C266.637 102.994 270.201 100.367 273.011 97.9635C275.849 95.5801 277.858 93.3472 279.28 91.8428C279.914 91.1102 280.429 90.5126 280.839 90.0375C281.203 89.6295 281.404 89.4224 281.425 89.4378C281.446 89.4533 281.284 89.6913 280.959 90.1303C280.576 90.63 280.094 91.2586 279.503 92.0314C278.141 93.5997 276.179 95.9037 273.363 98.3581C270.573 100.833 267.006 103.532 262.704 105.982C258.419 108.459 253.351 110.578 247.831 112.092C242.31 113.623 236.812 114.095 231.902 114.316C227.002 114.575 222.565 115.188 219.245 116.816C215.901 118.376 213.758 120.604 212.709 122.344C211.624 124.092 211.469 125.269 211.373 125.237Z" fill="#375A64"/>
<path d="M171.406 255.68C171.987 256.793 171.987 270.521 174.608 285.922C177.23 301.324 190.562 332.763 190.562 332.763L187.807 354.104L303.623 367.209L289.686 330.264L291.214 295.469C291.214 295.469 300.077 285.738 296.332 259.762C292.587 233.786 287.166 211.484 287.166 211.484L277.853 207.548L265.958 203.178L221.516 189.391L197.184 186.537L173.86 234.158L171.406 255.68Z" fill="#C17560"/>
<path d="M178.795 302.463C178.795 302.463 187.321 296.486 207.81 296.045C228.299 295.603 288.661 305.665 288.661 305.665L290.816 297.799C290.816 297.799 305.429 275.753 294.783 250.328C283.434 223.22 287.315 210.873 287.315 210.873L277.854 207.547C277.854 207.547 268.371 226.057 260.289 230.542C251.172 235.602 234.397 235.365 219.613 216.168C209.213 202.664 209.037 187.492 209.037 187.492L197.915 186.537C197.915 186.537 195.338 215.065 189.77 228.305C184.203 241.543 170.126 269.237 170.126 269.237C170.126 269.237 176.06 298.73 178.795 302.463Z" fill="#69B99D"/>
<path d="M186.593 354.146C185.845 356.002 173.86 387.915 172.361 413.89C170.862 439.866 170.488 472.337 176.106 493.581H242.399C242.399 493.581 247.922 446.625 249.795 444.399C251.668 442.172 253.54 441.469 254.29 449.985C255.039 458.499 252.886 493.581 252.886 493.581H317.321C317.321 493.581 319.179 435.189 317.68 420.828C316.732 411.732 313.678 396.781 311.567 387.045C310.247 380.957 308.438 374.988 306.146 369.191L298.635 350.196L186.593 354.146Z" fill="#1A2E35"/>
<path d="M303.623 362.811C303.623 362.821 303.517 362.831 303.309 362.841C303.072 362.85 302.768 362.861 302.387 362.875C301.54 362.894 300.354 362.92 298.845 362.953C295.769 362.993 291.318 363.117 285.822 363.309C274.828 363.683 259.659 364.603 242.912 365.764C226.158 366.925 210.973 367.785 199.969 368.063C194.467 368.206 190.014 368.273 186.937 368.249C185.428 368.239 184.241 368.231 183.394 368.225C183.013 368.218 182.709 368.211 182.472 368.206C182.264 368.198 182.158 368.19 182.158 368.181C182.158 368.172 182.264 368.161 182.472 368.151C182.709 368.143 183.013 368.131 183.392 368.117C184.24 368.1 185.427 368.073 186.935 368.04C190.01 368 194.46 367.875 199.957 367.684C210.951 367.309 226.122 366.39 242.874 365.229C259.622 364.067 274.805 363.207 285.81 362.93C291.311 362.787 295.766 362.72 298.843 362.743C300.353 362.754 301.54 362.761 302.387 362.767C302.768 362.775 303.072 362.782 303.309 362.787C303.517 362.794 303.623 362.802 303.623 362.811Z" fill="#375A64"/>
<path d="M193.545 368.181C193.554 368.183 193.538 368.293 193.498 368.506C193.45 368.746 193.388 369.056 193.31 369.445C193.125 370.305 192.865 371.511 192.534 373.048C192.182 374.609 191.765 376.52 191.345 378.753C190.918 380.984 190.372 383.514 189.917 386.337C189.674 387.747 189.42 389.222 189.155 390.759C188.893 392.297 188.684 393.907 188.432 395.569C187.905 398.889 187.506 402.458 187.049 406.209C186.244 413.722 185.594 422.008 185.323 430.724C185.093 439.444 185.269 447.755 185.663 455.301C185.919 459.071 186.121 462.657 186.482 465.998C186.65 467.671 186.773 469.29 186.96 470.838C187.15 472.386 187.333 473.872 187.508 475.291C187.822 478.133 188.26 480.682 188.587 482.929C188.903 485.18 189.241 487.105 189.531 488.679C189.8 490.227 190.011 491.442 190.161 492.308C190.223 492.701 190.272 493.013 190.31 493.255C190.342 493.468 190.353 493.578 190.344 493.581C190.334 493.583 190.305 493.475 190.256 493.265C190.204 493.026 190.138 492.717 190.054 492.329C189.88 491.467 189.635 490.257 189.323 488.716C189.002 487.148 188.633 485.225 188.288 482.977C187.932 480.731 187.467 478.182 187.128 475.34C186.942 473.92 186.747 472.433 186.545 470.885C186.346 469.335 186.213 467.715 186.035 466.041C185.654 462.696 185.434 459.105 185.165 455.329C184.742 447.771 184.551 439.445 184.781 430.709C185.052 421.977 185.719 413.676 186.553 406.154C187.024 402.398 187.441 398.826 187.988 395.504C188.25 393.841 188.469 392.23 188.743 390.692C189.02 389.155 189.286 387.68 189.541 386.27C190.019 383.448 190.592 380.92 191.049 378.693C191.497 376.464 191.944 374.556 192.328 373.002C192.701 371.474 192.995 370.275 193.204 369.421C193.304 369.036 193.383 368.73 193.445 368.493C193.502 368.284 193.535 368.179 193.545 368.181Z" fill="white"/>
<path d="M187.807 368.83C187.816 368.833 187.801 368.942 187.761 369.153C187.713 369.393 187.652 369.701 187.575 370.089C187.392 370.944 187.134 372.144 186.806 373.672C186.458 375.225 186.043 377.127 185.633 379.35C185.216 381.571 184.674 384.087 184.237 386.898C184.001 388.3 183.754 389.77 183.497 391.299C183.24 392.83 183.046 394.433 182.803 396.087C182.297 399.393 181.923 402.945 181.496 406.68C180.749 414.158 180.176 422.406 179.989 431.078C179.845 439.754 180.101 448.019 180.561 455.522C180.845 459.27 181.082 462.835 181.462 466.157C181.641 467.819 181.774 469.429 181.972 470.967C182.171 472.506 182.36 473.983 182.542 475.394C182.872 478.219 183.317 480.754 183.65 482.988C183.974 485.225 184.316 487.141 184.605 488.705C184.873 490.245 185.084 491.454 185.235 492.314C185.297 492.705 185.347 493.015 185.386 493.256C185.416 493.469 185.427 493.579 185.418 493.581C185.41 493.583 185.379 493.477 185.331 493.268C185.279 493.028 185.212 492.721 185.128 492.336C184.953 491.479 184.709 490.275 184.397 488.743C184.076 487.183 183.704 485.271 183.351 483.037C182.99 480.805 182.517 478.271 182.163 475.445C181.97 474.034 181.768 472.556 181.557 471.017C181.347 469.477 181.204 467.867 181.016 466.203C180.615 462.877 180.36 459.308 180.063 455.554C179.575 448.041 179.303 439.76 179.447 431.068C179.636 422.38 180.225 414.117 181 406.628C181.441 402.889 181.832 399.332 182.358 396.024C182.611 394.369 182.816 392.765 183.085 391.234C183.354 389.704 183.613 388.235 183.859 386.832C184.322 384.022 184.891 381.508 185.337 379.29C185.776 377.071 186.221 375.174 186.6 373.627C186.971 372.107 187.262 370.914 187.469 370.064C187.568 369.682 187.647 369.377 187.707 369.141C187.764 368.934 187.797 368.828 187.807 368.83Z" fill="white"/>
<path d="M298.667 351.524C298.633 351.539 298.352 350.961 297.87 349.903C297.365 348.762 296.691 347.242 295.875 345.396C294.208 341.576 291.934 336.274 289.436 330.368L289.417 330.323L289.415 330.275C289.405 330.027 289.393 329.76 289.382 329.491C289.108 322.914 288.89 316.959 288.76 312.648C288.708 310.557 288.665 308.833 288.633 307.541C288.63 306.99 288.628 306.532 288.626 306.151C288.63 305.833 288.642 305.665 288.66 305.665C288.679 305.664 288.704 305.83 288.735 306.147C288.765 306.526 288.801 306.983 288.843 307.533C288.919 308.823 289.02 310.543 289.143 312.632C289.371 316.939 289.649 322.892 289.924 329.468C289.934 329.737 289.946 330.005 289.956 330.253L289.935 330.161C292.428 336.069 294.645 341.395 296.222 345.252C296.975 347.124 297.595 348.667 298.061 349.824C298.484 350.906 298.701 351.51 298.667 351.524Z" fill="#7C4236"/>
<path d="M286.687 256.334C286.657 256.48 282.284 255.749 276.92 254.702C271.552 253.655 267.227 252.689 267.256 252.543C267.285 252.397 271.658 253.129 277.024 254.176C282.389 255.223 286.716 256.189 286.687 256.334Z" fill="white"/>
<path d="M139.964 440.761C139.964 451.56 131.127 460.317 120.227 460.317C109.325 460.317 100.488 451.56 100.488 440.761C100.488 429.96 109.325 421.204 120.227 421.204C131.127 421.204 139.964 429.96 139.964 440.761Z" fill="#FF735D"/>
<mask id="mask7_1212_89" style="mask-type:luminance" maskUnits="userSpaceOnUse" x="100" y="421" width="40" height="40">
<path d="M100.488 421.205H139.964V460.316H100.488V421.205Z" fill="white"/>
</mask>
<g mask="url(#mask7_1212_89)">
<g opacity="0.300003">
<path d="M139.964 440.761C139.964 451.561 131.127 460.317 120.227 460.317C109.325 460.317 100.488 451.561 100.488 440.761C100.488 429.96 109.325 421.205 120.227 421.205C131.127 421.205 139.964 429.96 139.964 440.761Z" fill="black"/>
</g>
</g>
<path d="M146.25 440.761C146.25 451.56 137.413 460.317 126.513 460.317C115.612 460.317 106.775 451.56 106.775 440.761C106.775 429.96 115.612 421.204 126.513 421.204C137.413 421.204 146.25 429.96 146.25 440.761Z" fill="#FF735D"/>
<path d="M115.456 404.401C115.456 405.136 115.438 417.909 113.214 425.07C110.99 432.231 109.878 439.576 110.805 442.331C111.731 445.085 122.109 455.184 124.519 456.102C126.929 457.02 148.056 455.184 148.056 455.184L155.283 430.762C155.283 430.762 146.944 419.01 143.423 412.767C139.902 406.524 136.718 399.256 137.105 394.903C137.492 390.549 115.456 404.401 115.456 404.401Z" fill="#C17560"/>
<path d="M163.466 442.632C163.466 453.433 154.629 462.188 143.728 462.188C132.827 462.188 123.99 453.433 123.99 442.632C123.99 431.832 132.827 423.076 143.728 423.076C154.629 423.076 163.466 431.832 163.466 442.632Z" fill="#FF735D"/>
<path d="M186.967 186.774C181.127 187.515 175.475 189.439 170.54 192.62C162.499 197.804 152.781 207.76 149.303 226.406C142.98 260.31 139.633 290.16 135.913 297.899C132.194 305.638 124.383 320.379 123.639 335.857C122.896 351.335 115.457 404.401 115.457 404.401H134.798C134.798 404.401 152.651 349.491 159.346 331.803C166.041 314.114 164.3 313.68 168.763 297.097C173.227 280.513 182.518 248.62 182.518 248.62L193.668 214.939L197.184 186.537L186.967 186.774Z" fill="#C17560"/>
<path d="M183.53 215.7C183.596 215.676 184.041 216.628 184.633 218.219C185.22 219.81 185.938 222.052 186.466 224.593C186.992 227.136 187.225 229.478 187.316 231.169C187.405 232.863 187.374 233.912 187.305 233.916C187.225 233.919 187.121 232.877 186.934 231.201C186.745 229.526 186.455 227.216 185.936 224.702C185.414 222.189 184.762 219.953 184.27 218.339C183.774 216.726 183.456 215.728 183.53 215.7Z" fill="#7C4236"/>
<mask id="mask8_1212_89" style="mask-type:luminance" maskUnits="userSpaceOnUse" x="123" y="423" width="41" height="40">
<path d="M123.99 423.076H163.466V462.188H123.99V423.076Z" fill="white"/>
</mask>
<g mask="url(#mask8_1212_89)">
<g opacity="0.300003">
<path d="M163.466 442.632C163.466 453.433 154.629 462.188 143.728 462.188C132.827 462.188 123.99 453.433 123.99 442.632C123.99 431.832 132.827 423.076 143.728 423.076C154.629 423.076 163.466 431.832 163.466 442.632Z" fill="black"/>
</g>
</g>
<path d="M170.412 442.632C170.412 453.433 161.575 462.188 150.673 462.188C139.773 462.188 130.936 453.433 130.936 442.632C130.936 431.832 139.773 423.076 150.673 423.076C161.575 423.076 170.412 431.832 170.412 442.632Z" fill="#FF735D"/>
<path d="M151.345 444.653L150.432 444.717L150.538 446.172L149.272 446.261L149.167 444.807L146.146 445.022L146.069 443.943L148.394 439.361L149.755 439.264L147.607 443.604L149.112 443.498L149.019 442.202L150.244 442.114L150.338 443.41L151.251 443.345L151.345 444.653Z" fill="#1A2E35"/>
<path d="M153.796 443.842L153.249 444.617L153.346 445.972L152.097 446.06L151.566 438.718L152.815 438.629L153.115 442.786L154.788 440.519L156.277 440.414L154.646 442.796L156.823 445.724L155.309 445.833L153.796 443.842Z" fill="#1A2E35"/>
<path d="M167.205 442.632C167.115 442.64 167.226 441.171 166.585 438.659C166.287 437.4 165.682 435.916 164.738 434.345C163.786 432.78 162.418 431.148 160.559 429.764C158.707 428.394 156.374 427.229 153.684 426.762C151.011 426.312 147.997 426.398 145.128 427.482C143.684 427.979 142.292 428.732 141.012 429.681C140.351 430.131 139.774 430.695 139.169 431.237C138.622 431.837 138.046 432.425 137.575 433.107C135.574 435.745 134.447 439.136 134.414 442.63C134.446 446.125 135.573 449.517 137.574 452.156C138.045 452.837 138.62 453.425 139.168 454.026C139.773 454.568 140.35 455.132 141.011 455.582C142.291 456.532 143.684 457.284 145.128 457.782C147.997 458.866 151.012 458.952 153.685 458.501C156.375 458.033 158.708 456.87 160.56 455.499C162.419 454.116 163.786 452.483 164.739 450.918C165.682 449.347 166.287 447.862 166.586 446.605C167.225 444.093 167.115 442.624 167.205 442.632C167.214 442.632 167.219 442.722 167.219 442.898C167.215 443.105 167.211 443.362 167.206 443.679C167.206 444.024 167.187 444.449 167.103 444.946C167.035 445.445 166.971 446.024 166.79 446.656C166.518 447.937 165.936 449.456 164.999 451.072C164.055 452.68 162.679 454.365 160.793 455.801C158.913 457.224 156.528 458.438 153.767 458.938C151.025 459.421 147.921 459.35 144.958 458.247C143.467 457.74 142.028 456.969 140.704 455.994C140.02 455.531 139.421 454.953 138.796 454.393C138.229 453.776 137.636 453.17 137.147 452.467C135.075 449.747 133.903 446.24 133.873 442.63C133.904 439.02 135.076 435.514 137.148 432.795C137.637 432.093 138.23 431.487 138.797 430.87C139.422 430.311 140.021 429.732 140.705 429.269C142.028 428.294 143.467 427.524 144.958 427.017C147.921 425.914 151.024 425.842 153.766 426.325C156.527 426.825 158.912 428.04 160.792 429.462C162.678 430.898 164.054 432.583 164.998 434.192C165.935 435.806 166.518 437.326 166.79 438.607C166.971 439.239 167.035 439.819 167.103 440.318C167.187 440.814 167.206 441.24 167.206 441.585C167.211 441.901 167.215 442.159 167.219 442.366C167.219 442.542 167.214 442.632 167.205 442.632Z" fill="#1A2E35"/>
</g>
</svg>
